<svg width="32" height="32" viewBox="0 0 32 32" fill="none" xmlns="http://www.w3.org/2000/svg">
  <!-- Fondo circular teal -->
  <circle cx="16" cy="16" r="16" fill="#0d9488"/>
  
  <!-- Carrito de compras -->
  <g fill="white">
    <!-- Cuerpo del carrito -->
    <path d="M7 8h2.5l3.6 7.59a1 1 0 0 0 .9.59h8a1 1 0 0 0 .9-.59L25 10H10"/>
    <path stroke="white" stroke-width="1.5" stroke-linecap="round" stroke-linejoin="round" d="M7 8h2.5l3.6 7.59a1 1 0 0 0 .9.59h8a1 1 0 0 0 .9-.59L25 10H10"/>
    
    <!-- Ruedas del carrito -->
    <circle cx="13" cy="22" r="1.5" fill="white"/>
    <circle cx="21" cy="22" r="1.5" fill="white"/>
    
    <!-- Mango del carrito -->
    <path stroke="white" stroke-width="1.5" stroke-linecap="round" d="M7 8L5 4H3"/>
  </g>
</svg>